# xmcd
#
# Track frame offsets:
#	150
#	19177
#	38805
#	53297
#	80925
#	96475
#	125490
#	143082
#	171072
#	182515
#	209100
#	224310
#	240647
#	262550
#	275970
#
# Disc length: 3934 seconds
#
# Revision: 1
# Processed by: cddbd v1.5.2PL0 Copyright (c) Steve Scherf et al.
# Submitted via: audiograbber 1.83.01
#
DISCID=da0f5c0f
DTITLE=Humple Pie - Natural Born Boogie
DYEAR=2002
DGENRE=
TTITLE0=Natural Born Boogie
TTITLE1=Buttermilk Boy
TTITLE2=Growing Closer
TTITLE3=As Safe Yesterday Is
TTITLE4=Bang!
TTITLE5=Desperation
TTITLE6=I'll Go Alone
TTITLE7=A Nifty Little Number Like You
TTITLE8=Heartbeat
TTITLE9=Home And Away
TTITLE10=Cold Lady
TTITLE11=Only You Can See
TTITLE12=Take Me Back
TTITLE13=The Sad Bag Of Shakey Jake
TTITLE14=Wrist Job
EXTD=
EXTT0=
EXTT1=
EXTT2=
EXTT3=
EXTT4=
EXTT5=
EXTT6=
EXTT7=
EXTT8=
EXTT9=
EXTT10=
EXTT11=
EXTT12=
EXTT13=
EXTT14=
PLAYORDER=
